<?xml version="1.0" encoding="UTF-8" standalone="no"?>
<!DOCTYPE svg PUBLIC "-//W3C//DTD SVG 20010904//EN"
              "http://www.w3.org/TR/2001/REC-SVG-20010904/DTD/svg10.dtd">

<svg xmlns="http://www.w3.org/2000/svg" viewBox="0 0 640 1136">
                        <path id="Selection" fill="none" stroke="white" stroke-width="4" d="M 59.00,426.00
                               C 59.00,426.00 60.00,403.00 60.00,403.00
                                 60.00,403.00 60.00,362.00 60.00,362.00
                                 60.00,362.00 71.00,362.00 71.00,362.00
                                 71.00,362.00 71.00,443.00 71.00,443.00
                                 71.00,443.00 64.00,443.00 64.00,443.00
                                 64.00,443.00 58.38,442.43 58.38,442.43
                                 58.38,442.43 48.05,428.00 48.05,428.00
                                 48.05,428.00 29.58,398.00 29.58,398.00
                                 29.58,398.00 18.00,378.00 18.00,378.00
                                 18.00,378.00 17.00,401.00 17.00,401.00
                                 17.00,401.00 17.00,443.00 17.00,443.00
                                 17.00,443.00 6.00,443.00 6.00,443.00
                                 6.00,443.00 6.00,362.00 6.00,362.00
                                 6.00,362.00 14.00,362.00 14.00,362.00
                                 14.00,362.00 19.67,363.02 19.67,363.02
                                 19.67,363.02 29.40,377.00 29.40,377.00
                                 29.40,377.00 49.20,409.00 49.20,409.00
                                 49.20,409.00 59.00,426.00 59.00,426.00 Z
                               M 159.00,362.00
                               C 159.00,362.00 159.00,443.00 159.00,443.00
                                 159.00,443.00 148.00,443.00 148.00,443.00
                                 148.00,443.00 148.00,362.00 148.00,362.00
                                 148.00,362.00 159.00,362.00 159.00,362.00 Z
                               M 340.00,362.00
                               C 340.00,362.00 340.00,400.00 340.00,400.00
                                 340.00,400.00 367.00,373.00 367.00,373.00
                                 367.00,373.00 378.00,363.02 378.00,363.02
                                 378.00,363.02 394.00,362.00 394.00,362.00
                                 394.00,362.00 376.00,381.00 376.00,381.00
                                 376.00,381.00 362.00,393.00 362.00,393.00
                                 362.00,393.00 395.00,443.00 395.00,443.00
                                 395.00,443.00 381.32,442.43 381.32,442.43
                                 381.32,442.43 372.02,431.00 372.02,431.00
                                 372.02,431.00 353.00,403.00 353.00,403.00
                                 353.00,403.00 341.02,416.00 341.02,416.00
                                 341.02,416.00 340.00,443.00 340.00,443.00
                                 340.00,443.00 329.00,443.00 329.00,443.00
                                 329.00,443.00 329.00,362.00 329.00,362.00
                                 329.00,362.00 340.00,362.00 340.00,362.00 Z
                               M 569.00,362.00
                               C 569.00,362.00 569.00,443.00 569.00,443.00
                                 569.00,443.00 558.00,443.00 558.00,443.00
                                 558.00,443.00 558.00,362.00 558.00,362.00
                                 558.00,362.00 569.00,362.00 569.00,362.00 Z
                               M 104.00,381.32
                               C 112.04,380.44 119.17,380.71 126.00,385.64
                                 140.73,396.26 140.64,426.59 127.82,438.67
                                 121.67,444.46 114.97,445.09 107.00,445.00
                                 90.57,444.80 82.18,431.18 82.00,416.00
                                 81.81,399.84 86.28,385.35 104.00,381.32 Z
                               M 226.00,436.00
                               C 225.99,437.99 226.24,441.81 224.98,443.40
                                 223.63,445.10 212.98,448.34 210.00,437.00
                                 202.59,443.07 197.60,445.22 188.00,444.99
                                 171.95,444.59 165.70,427.48 173.00,416.04
                                 178.90,406.80 191.49,407.48 201.00,405.71
                                 205.64,404.85 209.83,402.51 208.67,397.00
                                 207.02,389.17 194.97,387.72 189.04,391.14
                                 185.38,393.25 184.13,396.16 183.00,400.00
                                 183.00,400.00 173.00,400.00 173.00,400.00
                                 174.14,386.41 181.84,381.16 195.00,381.00
                                 202.08,380.92 211.44,381.19 216.35,387.21
                                 219.36,390.90 219.94,396.42 220.00,401.00
                                 220.00,401.00 220.00,429.00 220.00,429.00
                                 220.10,434.08 220.31,436.48 226.00,436.00 Z
                               M 283.00,443.00
                               C 283.00,443.00 273.00,443.00 273.00,443.00
                                 273.00,443.00 273.00,410.00 273.00,410.00
                                 272.99,404.20 272.76,395.60 267.79,391.70
                                 260.57,386.05 250.99,391.96 247.45,399.00
                                 245.81,402.28 245.05,410.21 245.00,414.00
                                 245.00,414.00 245.00,443.00 245.00,443.00
                                 245.00,443.00 235.00,443.00 235.00,443.00
                                 235.00,443.00 235.00,383.00 235.00,383.00
                                 235.00,383.00 245.00,383.00 245.00,383.00
                                 245.00,383.00 245.00,388.00 245.00,388.00
                                 252.87,382.49 255.18,380.78 265.00,381.01
                                 273.42,381.22 279.61,384.50 282.06,393.00
                                 283.41,397.67 283.00,405.89 283.00,411.00
                                 283.00,411.00 283.00,443.00 283.00,443.00 Z
                               M 494.00,381.00
                               C 494.00,381.00 494.00,391.00 494.00,391.00
                                 491.55,391.11 489.37,391.22 487.00,391.99
                                 473.89,396.25 476.00,409.18 476.00,420.00
                                 476.00,420.00 476.00,443.00 476.00,443.00
                                 476.00,443.00 465.00,443.00 465.00,443.00
                                 465.00,443.00 465.00,383.00 465.00,383.00
                                 465.00,383.00 475.00,383.00 475.00,383.00
                                 475.00,383.00 475.00,390.00 475.00,390.00
                                 482.02,382.59 483.79,381.03 494.00,381.00 Z
                               M 601.00,381.32
                               C 609.04,380.44 616.17,380.71 623.00,385.64
                                 637.73,396.26 637.64,426.59 624.82,438.67
                                 618.67,444.46 611.97,445.09 604.00,445.00
                                 587.57,444.80 579.18,431.18 579.00,416.00
                                 578.81,399.84 583.28,385.35 601.00,381.32 Z
                               M 413.00,383.00
                               C 413.00,383.00 413.00,417.00 413.00,417.00
                                 413.01,422.29 413.03,429.74 417.23,433.58
                                 424.48,440.23 434.14,434.84 437.64,427.00
                                 441.36,418.64 440.00,393.32 440.00,383.00
                                 440.00,383.00 450.00,383.00 450.00,383.00
                                 450.00,383.00 450.00,443.00 450.00,443.00
                                 450.00,443.00 441.00,443.00 441.00,443.00
                                 441.00,443.00 441.00,437.00 441.00,437.00
                                 437.99,439.84 435.93,441.92 432.00,443.52
                                 423.72,446.90 410.17,445.48 405.41,436.98
                                 403.16,432.96 403.02,429.45 403.00,425.00
                                 403.00,425.00 403.00,383.00 403.00,383.00
                                 403.00,383.00 413.00,383.00 413.00,383.00 Z
                               M 508.00,383.00
                               C 508.00,383.00 523.00,429.00 523.00,429.00
                                 523.00,429.00 538.00,383.00 538.00,383.00
                                 538.00,383.00 550.00,383.00 550.00,383.00
                                 550.00,383.00 529.40,441.00 529.40,441.00
                                 527.26,446.34 521.91,460.01 517.79,463.35
                                 513.45,466.86 506.33,466.00 501.00,466.00
                                 501.00,466.00 501.00,457.05 501.00,457.05
                                 502.95,457.14 506.20,457.61 508.00,457.05
                                 513.52,455.49 517.26,447.38 516.20,442.00
                                 516.20,442.00 496.00,383.00 496.00,383.00
                                 496.00,383.00 508.00,383.00 508.00,383.00 Z
                               M 108.00,389.53
                               C 104.40,390.16 101.99,390.71 99.21,393.34
                                 90.68,401.40 87.91,434.61 108.00,436.47
                                 118.48,437.45 122.48,431.03 124.84,422.00
                                 128.48,408.15 126.16,389.08 108.00,389.53 Z
                               M 605.00,389.53
                               C 601.40,390.16 598.99,390.71 596.21,393.34
                                 587.68,401.40 584.91,434.61 605.00,436.47
                                 615.48,437.45 619.48,431.03 621.84,422.00
                                 625.48,408.15 623.16,389.08 605.00,389.53 Z
                               M 209.00,413.00
                               C 209.00,413.00 196.00,414.92 196.00,414.92
                                 193.29,415.38 189.42,416.02 187.02,417.30
                                 180.24,420.90 179.21,429.81 185.13,434.30
                                 192.10,439.59 204.80,434.69 207.85,427.00
                                 209.38,423.15 209.00,417.20 209.00,413.00 Z" />
                    </svg>
